<svg width="24" height="24" viewBox="0 0 24 24" fill="none" xmlns="http://www.w3.org/2000/svg">
<path d="M13.5737 3.5C13.5737 4.32843 12.9027 5 12.075 5C11.2474 5 10.5764 4.32843 10.5764 3.5C10.5764 2.67157 11.2474 2 12.075 2C12.9027 2 13.5737 2.67157 13.5737 3.5Z" fill="#708191"/>
<path d="M22.0659 19.1944C22.0659 20.0229 21.3949 20.6944 20.5672 20.6944C19.7396 20.6944 19.0686 20.0229 19.0686 19.1944C19.0686 18.366 19.7396 17.6944 20.5672 17.6944C21.3949 17.6944 22.0659 18.366 22.0659 19.1944Z" fill="#708191"/>
<path d="M22.0842 8.46918C22.0842 9.2976 21.4132 9.96918 20.5855 9.96918C19.7579 9.96918 19.0869 9.2976 19.0869 8.46918C19.0869 7.64075 19.7579 6.96918 20.5855 6.96918C21.4132 6.96918 22.0842 7.64075 22.0842 8.46918Z" fill="#708191"/>
<path d="M5.08148 19.1944C5.08148 20.0229 4.41053 20.6944 3.58286 20.6944C2.75519 20.6944 2.08423 20.0229 2.08423 19.1944C2.08423 18.366 2.75519 17.6944 3.58286 17.6944C4.41053 17.6944 5.08148 18.366 5.08148 19.1944Z" fill="#708191"/>
<path fill-rule="evenodd" clip-rule="evenodd" d="M6.9122 11.44C7.18809 11.44 7.41174 11.2161 7.41174 10.94C7.41174 10.6638 7.18809 10.44 6.9122 10.44C6.63631 10.44 6.41266 10.6638 6.41266 10.94C6.41266 11.2161 6.63631 11.44 6.9122 11.44ZM6.9122 12.44C7.73987 12.44 8.41083 11.7684 8.41083 10.94C8.41083 10.1115 7.73987 9.43997 6.9122 9.43997C6.08453 9.43997 5.41357 10.1115 5.41357 10.94C5.41357 11.7684 6.08453 12.44 6.9122 12.44Z" fill="#708191"/>
<path fill-rule="evenodd" clip-rule="evenodd" d="M6.9122 17.6229C7.18809 17.6229 7.41174 17.399 7.41174 17.1229C7.41174 16.8467 7.18809 16.6229 6.9122 16.6229C6.63631 16.6229 6.41266 16.8467 6.41266 17.1229C6.41266 17.399 6.63631 17.6229 6.9122 17.6229ZM6.9122 18.6229C7.73987 18.6229 8.41083 17.9513 8.41083 17.1229C8.41083 16.2944 7.73987 15.6229 6.9122 15.6229C6.08453 15.6229 5.41357 16.2944 5.41357 17.1229C5.41357 17.9513 6.08453 18.6229 6.9122 18.6229Z" fill="#708191"/>
<path fill-rule="evenodd" clip-rule="evenodd" d="M17.2076 11.44C17.4835 11.44 17.7072 11.2161 17.7072 10.94C17.7072 10.6638 17.4835 10.44 17.2076 10.44C16.9317 10.44 16.7081 10.6638 16.7081 10.94C16.7081 11.2161 16.9317 11.44 17.2076 11.44ZM17.2076 12.44C18.0353 12.44 18.7062 11.7684 18.7062 10.94C18.7062 10.1115 18.0353 9.43997 17.2076 9.43997C16.3799 9.43997 15.709 10.1115 15.709 10.94C15.709 11.7684 16.3799 12.44 17.2076 12.44Z" fill="#708191"/>
<path fill-rule="evenodd" clip-rule="evenodd" d="M12.075 8.13159C12.3509 8.13159 12.5746 7.90773 12.5746 7.63159C12.5746 7.35545 12.3509 7.13159 12.075 7.13159C11.7992 7.13159 11.5755 7.35545 11.5755 7.63159C11.5755 7.90773 11.7992 8.13159 12.075 8.13159ZM12.075 9.13159C12.9027 9.13159 13.5737 8.46002 13.5737 7.63159C13.5737 6.80316 12.9027 6.13159 12.075 6.13159C11.2474 6.13159 10.5764 6.80316 10.5764 7.63159C10.5764 8.46002 11.2474 9.13159 12.075 9.13159Z" fill="#708191"/>
<path fill-rule="evenodd" clip-rule="evenodd" d="M17.2076 17.6229C17.4835 17.6229 17.7072 17.399 17.7072 17.1229C17.7072 16.8467 17.4835 16.6229 17.2076 16.6229C16.9317 16.6229 16.7081 16.8467 16.7081 17.1229C16.7081 17.399 16.9317 17.6229 17.2076 17.6229ZM17.2076 18.6229C18.0353 18.6229 18.7062 17.9513 18.7062 17.1229C18.7062 16.2944 18.0353 15.6229 17.2076 15.6229C16.3799 15.6229 15.709 16.2944 15.709 17.1229C15.709 17.9513 16.3799 18.6229 17.2076 18.6229Z" fill="#708191"/>
<path fill-rule="evenodd" clip-rule="evenodd" d="M12.075 21C12.3509 21 12.5746 20.7761 12.5746 20.5C12.5746 20.2239 12.3509 20 12.075 20C11.7992 20 11.5755 20.2239 11.5755 20.5C11.5755 20.7761 11.7992 21 12.075 21ZM12.075 22C12.9027 22 13.5737 21.3284 13.5737 20.5C13.5737 19.6716 12.9027 19 12.075 19C11.2474 19 10.5764 19.6716 10.5764 20.5C10.5764 21.3284 11.2474 22 12.075 22Z" fill="#708191"/>
<path fill-rule="evenodd" clip-rule="evenodd" d="M16.9103 18.2973L12.9289 20.7701L12.4021 19.9204L16.3835 17.4476L16.9103 18.2973Z" fill="#708191"/>
<path fill-rule="evenodd" clip-rule="evenodd" d="M17.708 12L17.708 16.2674L16.708 16.2674L16.708 12L17.708 12Z" fill="#708191"/>
<path fill-rule="evenodd" clip-rule="evenodd" d="M7.4126 11.8528L7.4126 16.1202L6.4126 16.1202L6.4126 11.8528L7.4126 11.8528Z" fill="#708191"/>
<path fill-rule="evenodd" clip-rule="evenodd" d="M11.6733 8.6958L7.98099 10.8295L7.48145 9.96347L11.1737 7.82977L11.6733 8.6958Z" fill="#708191"/>
<path fill-rule="evenodd" clip-rule="evenodd" d="M15.9515 11.0847L12.317 8.85368L12.8394 8.00122L16.4738 10.2322L15.9515 11.0847Z" fill="#708191"/>
<path fill-rule="evenodd" clip-rule="evenodd" d="M20.9691 20.4176L17.7131 18.4182L18.2356 17.5658L21.4915 19.5653L20.9691 20.4176Z" fill="#708191"/>
<path fill-rule="evenodd" clip-rule="evenodd" d="M21.2618 8.959L18.0169 10.9763L17.4897 10.1269L20.7347 8.10953L21.2618 8.959Z" fill="#708191"/>
<path fill-rule="evenodd" clip-rule="evenodd" d="M6.53792 18.2973L3.29302 20.3146L2.76587 19.4651L6.01078 17.4478L6.53792 18.2973Z" fill="#708191"/>
<path fill-rule="evenodd" clip-rule="evenodd" d="M10.8825 20.7701L6.91213 18.5117L7.40576 17.6423L11.3761 19.9007L10.8825 20.7701Z" fill="#708191"/>
<path fill-rule="evenodd" clip-rule="evenodd" d="M12.0117 18.4062C11.8781 18.1646 11.9655 17.8603 12.2068 17.7266L14.7883 16.2966C15.0297 16.1628 15.3337 16.2503 15.4673 16.4919C15.6009 16.7335 15.5135 17.0378 15.2721 17.1715L12.6906 18.6015C12.4492 18.7352 12.1453 18.6478 12.0117 18.4062Z" fill="#708191"/>
<path fill-rule="evenodd" clip-rule="evenodd" d="M8.73262 11.6804C8.59902 11.4388 8.68641 11.1346 8.92779 11.0008L11.5093 9.57083C11.7507 9.43711 12.0546 9.52457 12.1882 9.76618C12.3218 10.0078 12.2344 10.312 11.9931 10.4458L9.41158 11.8758C9.17019 12.0095 8.86621 11.922 8.73262 11.6804Z" fill="#708191"/>
<path fill-rule="evenodd" clip-rule="evenodd" d="M11.5747 6.917L11.5747 4.66104L12.5747 4.66104L12.5747 6.917L11.5747 6.917Z" fill="#708191"/>
</svg>
