<svg width="24" height="24" viewBox="0 0 24 24" fill="none" xmlns="http://www.w3.org/2000/svg">
<g clip-path="url(#clip0_3626_171929)">
<path d="M0.394861 23.9053C0.27594 23.8465 0.165308 23.7423 0.101893 23.6295L0 23.4482V12V0.551827L0.0992756 0.375189C0.153877 0.278039 0.278039 0.153878 0.375189 0.0992759L0.551827 0H12H23.4482L23.6303 0.102379C23.7464 0.167628 23.8465 0.274999 23.9062 0.398429C23.9992 0.590476 24 0.687733 24 12V23.4079L23.9034 23.6074C23.8333 23.7522 23.7522 23.8333 23.6074 23.9034L23.4079 24L11.9969 24C0.64686 23.9999 0.584917 23.9994 0.394861 23.9053ZM22.5938 13.4297V4.26562H15.7915H8.98933L8.81269 4.16635C8.71514 4.11152 8.58844 3.98236 8.52972 3.87788C8.42453 3.69072 8.42373 3.67636 8.45594 2.54746L8.48851 1.40625H4.94738H1.40625V12V22.5938H12H22.5938V13.4297ZM17.2902 20.3857C17.0894 20.2663 16.9219 19.993 16.9219 19.7847C16.9219 19.5567 17.0768 19.3012 17.2867 19.1832C17.4419 19.096 17.5454 19.0781 17.8946 19.0781H18.3156L18.338 18.6131C18.3564 18.2297 18.383 18.1018 18.4892 17.8848C18.6075 17.6429 18.6122 17.6129 18.5476 17.5142C18.4226 17.3235 18.3281 16.9135 18.3281 16.5618V16.2188H17.9009C17.3961 16.2188 17.1803 16.1267 17.0212 15.8436C16.8301 15.5036 16.9462 15.109 17.2949 14.913C17.477 14.8107 17.5304 14.8044 18.0849 14.821C18.5607 14.8352 18.7224 14.8582 18.893 14.936C19.2034 15.0776 19.4317 15.2983 19.5789 15.5993C19.6879 15.8221 19.7113 15.9385 19.7266 16.3344C19.7366 16.593 19.7642 16.8288 19.788 16.8582C19.8117 16.8876 19.9263 16.9259 20.0425 16.9434C20.4312 17.0017 20.717 17.3759 20.6566 17.7477C20.6074 18.0509 20.3185 18.3281 20.0518 18.3281C19.9918 18.3281 19.8983 18.3593 19.8439 18.3973C19.7566 18.4585 19.743 18.5227 19.7272 18.9487C19.7121 19.3587 19.6899 19.4707 19.5794 19.6966C19.4317 19.9984 19.2038 20.219 18.893 20.361C18.7192 20.4404 18.5669 20.4611 18.0703 20.4728C17.5148 20.4859 17.4459 20.4782 17.2902 20.3857ZM4.66049 18.2803C4.44041 18.1714 4.26562 17.9021 4.26562 17.6719C4.26562 17.4562 4.43487 17.1838 4.64081 17.068C4.81088 16.9724 4.8754 16.9688 6.375 16.9688C7.88946 16.9688 7.93759 16.9716 8.11471 17.0711C8.3066 17.179 8.48438 17.4679 8.48438 17.6719C8.48438 17.8954 8.30243 18.1765 8.09176 18.2784C7.9029 18.3699 7.8113 18.375 6.37192 18.375C4.94152 18.3749 4.84026 18.3693 4.66049 18.2803ZM10.2855 18.281C10.0654 18.1713 9.89062 17.9016 9.89062 17.6719C9.89062 17.4553 10.0601 17.1836 10.2681 17.0667C10.4453 16.9672 10.4695 16.9663 12.767 16.9792C15.0266 16.9918 15.0903 16.9947 15.2164 17.0888C15.4483 17.2621 15.5391 17.426 15.5391 17.6719C15.5391 17.9177 15.4483 18.0817 15.2164 18.2549C15.0903 18.349 15.0269 18.3519 12.7818 18.3639C10.5451 18.376 10.4709 18.3735 10.2855 18.281ZM4.66049 15.4213C4.44042 15.312 4.26562 15.0425 4.26562 14.8125C4.26562 14.5964 4.43499 14.3243 4.6419 14.208L4.81963 14.1082L9.95326 14.1205C15.0555 14.1327 15.0877 14.1334 15.2163 14.2295C15.4483 14.4027 15.5391 14.5666 15.5391 14.8125C15.5391 15.0584 15.4483 15.2223 15.2163 15.3955C15.0877 15.4916 15.0556 15.4923 9.96923 15.5042C4.91239 15.5161 4.84929 15.5151 4.66049 15.4213ZM8.88049 12.6372C8.68952 12.554 8.49501 12.3153 8.45816 12.1189C8.40051 11.8116 8.60834 11.4649 8.92102 11.3467C9.00758 11.314 9.82789 11.2969 11.3053 11.2969C13.534 11.2969 13.5595 11.2979 13.7397 11.3993C13.9316 11.5071 14.1094 11.796 14.1094 12C14.1094 12.2235 13.9274 12.5046 13.7168 12.6066C13.5237 12.7 13.4453 12.7031 11.2704 12.7013C9.5084 12.6999 8.99258 12.686 8.88049 12.6372ZM15.9105 12.6085C15.6904 12.4995 15.5156 12.2302 15.5156 12C15.5156 11.7843 15.6849 11.5119 15.8908 11.3962C16.0609 11.3006 16.1254 11.2969 17.625 11.2969C19.1395 11.2969 19.1876 11.2997 19.3647 11.3993C19.5566 11.5071 19.7344 11.796 19.7344 12C19.7344 12.2235 19.5524 12.5046 19.3418 12.6066C19.1529 12.698 19.0613 12.7031 17.6219 12.7031C16.1915 12.7031 16.0903 12.6975 15.9105 12.6085ZM5.22558 11.9624C4.57719 11.7382 4.26562 11.2399 4.26562 10.4269C4.26562 9.99352 4.24744 9.96444 3.94543 9.9146C3.55497 9.85017 3.27533 9.46016 3.34673 9.07959C3.40328 8.77814 3.68606 8.53125 3.97478 8.53125C4.20099 8.53125 4.2534 8.42075 4.27496 7.89844C4.30463 7.17965 4.52764 6.7877 5.05399 6.52922C5.29481 6.41096 5.37725 6.39687 5.91506 6.38209C6.46423 6.36699 6.5244 6.37394 6.70021 6.47275C6.90041 6.58526 7.07812 6.86995 7.07812 7.07812C7.07812 7.13919 7.03467 7.27892 6.98156 7.38863C6.84175 7.67743 6.60473 7.78125 6.08522 7.78125H5.68441L5.66201 8.2463C5.64375 8.62551 5.61658 8.75845 5.5148 8.96648L5.38997 9.22162L5.51442 9.49344C5.61127 9.70501 5.64394 9.86229 5.66176 10.2029L5.68465 10.6406H6.10547C6.6222 10.6406 6.83909 10.739 6.98437 11.0391C7.10285 11.2838 7.1023 11.4048 6.98156 11.6543C6.83231 11.9626 6.61401 12.0473 5.97348 12.0453C5.6119 12.0443 5.39162 12.0198 5.22558 11.9624ZM8.83236 9.79597C8.61229 9.68703 8.4375 9.41769 8.4375 9.1875C8.4375 8.97179 8.60674 8.6994 8.81269 8.58365L8.98933 8.48438H14.0859H19.1825L19.3647 8.58675C19.5566 8.69461 19.7344 8.9835 19.7344 9.1875C19.7344 9.41098 19.5524 9.69207 19.3418 9.79406C19.1441 9.88974 19.0957 9.89062 14.0829 9.89059C9.103 9.89055 9.02043 9.88906 8.83236 9.79597ZM3.24847 4.16812C3.04066 4.06525 2.85938 3.78309 2.85938 3.5625C2.85938 3.33902 3.04132 3.05793 3.25199 2.95594C3.44096 2.86447 3.53236 2.85938 4.98542 2.85938C6.43027 2.85938 6.5301 2.86486 6.70436 2.95376C6.91231 3.05984 7.07812 3.3299 7.07812 3.5625C7.07812 3.7951 6.91231 4.06516 6.70436 4.17124C6.53008 4.26016 6.43032 4.26562 4.98234 4.26559C3.52036 4.26555 3.4357 4.26079 3.24847 4.16812ZM16.9219 2.13281V1.40625H13.4133H9.90477L9.8745 1.86328C9.85785 2.11465 9.84413 2.4416 9.84399 2.58984L9.84376 2.85938H13.3828H16.9219L16.9219 2.13281ZM19.7344 2.13281V1.40625H19.0312H18.3281V2.13281V2.85938H19.0312H19.7344V2.13281ZM22.5938 2.13281V1.40625H21.8672H21.1406V2.13281V2.85938H21.8672H22.5938V2.13281Z" fill="#708191"/>
</g>
<defs>
<clipPath id="clip0_3626_171929">
<rect width="24" height="24" fill="white"/>
</clipPath>
</defs>
</svg>
