<svg width="24" height="24" viewBox="0 0 24 24" fill="none" xmlns="http://www.w3.org/2000/svg">
<path d="M2.94893 16.3804L7.70164 21.1177C7.66389 21.1588 7.62155 21.1955 7.57546 21.2269C7.47603 21.4089 7.44331 21.6198 7.48293 21.8233C7.50046 21.8626 7.52596 21.8978 7.55782 21.9267C7.58967 21.9556 7.62718 21.9776 7.66799 21.9913C7.74043 22.0029 7.81426 22.0029 7.8867 21.9913C7.97311 21.9933 8.05873 21.9745 8.13633 21.9365C8.21394 21.8985 8.28123 21.8424 8.33253 21.7729C8.33253 21.7729 9.29148 20.8658 9.29148 18.5307C9.29148 16.1956 9.03912 16.1956 9.03071 16.1956V16.204C9.70714 16.3337 10.3944 16.3983 11.0832 16.3972C12.5393 16.4954 13.9754 16.0154 15.0788 15.0617C17.0052 13.0458 16.1808 9.09798 16.1724 9.06438C17.0019 9.24352 17.8473 9.33919 18.6959 9.34997C19.8484 9.34997 21.3625 9.12318 21.9934 8.06483C22.0162 7.91174 21.9801 7.75571 21.8924 7.62806C21.8633 7.59462 21.827 7.56818 21.7862 7.55073C21.7455 7.53328 21.7012 7.52525 21.6569 7.52726C21.5089 7.53651 21.365 7.57962 21.2363 7.65326L21.1101 7.76245L16.307 2.93271C16.357 2.87596 16.4134 2.82522 16.4752 2.78151C16.4752 2.71432 16.593 2.26914 16.4752 2.08435C16.4535 2.05644 16.4253 2.03421 16.393 2.01958C16.3608 2.00495 16.3255 1.99835 16.2901 2.00036C16.1593 2.01019 16.0325 2.05046 15.92 2.11795C14.9863 2.62192 14.3134 4.63782 15.2134 8.7116C15.431 9.64177 15.5299 10.5957 15.5078 11.5506V11.6094V11.5674L12.5216 8.6444H12.7488C13.0919 8.64696 13.4345 8.66939 13.775 8.7116C13.9114 8.69506 14.037 8.62935 14.1283 8.52681C14.1556 8.48823 14.1749 8.44456 14.1851 8.39839C14.1952 8.35221 14.1959 8.30448 14.1872 8.25802C14.1783 8.14795 14.1315 8.04434 14.0549 7.96474C13.9782 7.88514 13.8764 7.83445 13.7666 7.82125C13.4886 7.77598 13.207 7.7563 12.9254 7.76245C11.7938 7.73502 10.6774 8.02609 9.70366 8.60241C8.39141 9.44236 7.71005 10.9039 7.66799 12.903C7.72267 14.2971 7.9057 15.6833 8.21476 17.044C8.30991 17.2774 8.36945 17.5237 8.39141 17.7747V17.8839L6.29686 15.7924H6.34733C6.72586 15.742 6.91092 15.5992 6.94457 15.322C6.95574 15.283 6.95697 15.2419 6.94815 15.2023C6.93934 15.1627 6.92076 15.1259 6.8941 15.0953C6.78475 14.9525 6.48192 14.7761 5.67438 14.7761C5.17279 14.7867 4.67252 14.8316 4.17707 14.9105C3.78616 14.9208 3.40187 15.0137 3.04954 15.1831C2.69721 15.3525 2.38483 15.5945 2.13299 15.8932C2.08066 15.9604 2.04251 16.0374 2.02082 16.1197C1.99913 16.202 1.99437 16.2878 2.00681 16.372C2.04532 16.4577 2.11001 16.529 2.1916 16.5758C2.27319 16.6226 2.3675 16.6424 2.46105 16.6324C2.50471 16.6367 2.54879 16.6322 2.59069 16.6193C2.63259 16.6063 2.67146 16.585 2.70499 16.5568L2.94893 16.3804ZM8.41665 19.169C8.39053 19.569 8.31422 19.964 8.18953 20.345L3.80695 15.9604H3.84901C4.09097 15.878 4.34262 15.8271 4.59766 15.8092H5.11078L8.39982 19.0935L8.41665 19.169ZM11.5795 15.5908H11.0664C10.3147 15.5851 9.56527 15.5064 8.82883 15.3556C8.59971 14.4504 8.50337 13.5167 8.54282 12.5838V12.525L8.58488 12.567L11.4954 15.4816V15.5236L11.5795 15.5908ZM14.1031 14.7509C13.6869 15.0527 13.2153 15.2696 12.7151 15.3892L8.812 11.4919C8.92766 10.9888 9.13898 10.5126 9.43448 10.0891L14.1031 14.7509ZM15.4069 12.6846C15.2901 13.1913 15.0758 13.6706 14.776 14.0957L10.0906 9.41716C10.5007 9.10167 10.9741 8.8782 11.4786 8.762L15.4069 12.693V12.6846ZM15.7434 5.0242C15.7463 4.60988 15.8028 4.19769 15.9116 3.79786V3.72226L20.3194 8.14883C19.944 8.27761 19.5541 8.35943 19.1586 8.39242L15.735 4.9738L15.7434 5.0242ZM17.7959 8.41761C17.193 8.35176 16.5965 8.23657 16.0126 8.07323C15.8966 7.51814 15.8096 6.95742 15.7518 6.39332V6.29253L15.8023 6.34293L17.7959 8.37562L17.8463 8.42601L17.7959 8.41761Z" fill="#708191"/>
<path fill-rule="evenodd" clip-rule="evenodd" d="M7.65965 21.1599C7.6742 21.1464 7.68821 21.1324 7.70164 21.1177L2.94893 16.3804L2.70499 16.5568C2.67146 16.585 2.63259 16.6063 2.59069 16.6193C2.54879 16.6322 2.50471 16.6367 2.46105 16.6324C2.3675 16.6424 2.27319 16.6226 2.1916 16.5758C2.11001 16.529 2.04532 16.4577 2.00681 16.372C1.99437 16.2878 1.99913 16.202 2.02082 16.1197C2.04251 16.0374 2.08066 15.9604 2.13299 15.8932C2.38483 15.5945 2.69721 15.3525 3.04954 15.1831C3.40187 15.0137 3.78616 14.9208 4.17707 14.9105C4.67252 14.8316 5.17279 14.7867 5.67438 14.7761C6.48192 14.7761 6.78475 14.9525 6.8941 15.0953C6.92076 15.1259 6.93934 15.1627 6.94815 15.2023C6.95697 15.2419 6.95574 15.283 6.94457 15.322C6.91727 15.5469 6.79029 15.6834 6.54118 15.7538C6.48326 15.7701 6.41874 15.7829 6.34733 15.7924H6.29686L8.39141 17.8839V17.7747C8.38558 17.7081 8.3771 17.6417 8.36601 17.5759C8.33532 17.3938 8.28464 17.2154 8.21476 17.044C7.9057 15.6833 7.72267 14.2971 7.66799 12.903C7.71005 10.9039 8.39141 9.44236 9.70366 8.60241C10.6774 8.02609 11.7938 7.73502 12.9254 7.76245C13.207 7.7563 13.4886 7.77598 13.7666 7.82125C13.8764 7.83445 13.9782 7.88514 14.0549 7.96474C14.1315 8.04434 14.1783 8.14795 14.1872 8.25802C14.1959 8.30448 14.1952 8.35221 14.1851 8.39839C14.1749 8.44456 14.1556 8.48823 14.1283 8.52681C14.037 8.62935 13.9114 8.69506 13.775 8.7116C13.4542 8.67183 13.1314 8.64961 12.8082 8.64504C12.7884 8.64476 12.7686 8.64455 12.7488 8.6444H12.5216L15.5078 11.5674V11.5506C15.5099 11.4639 15.5109 11.3772 15.5109 11.2905C15.511 10.4226 15.4113 9.55731 15.2134 8.7116C14.3134 4.63782 14.9863 2.62192 15.92 2.11795C16.0325 2.05046 16.1593 2.01019 16.2901 2.00036C16.3255 1.99835 16.3608 2.00495 16.393 2.01958C16.4253 2.03421 16.4535 2.05644 16.4752 2.08435C16.5674 2.22899 16.5153 2.53316 16.4883 2.69073C16.4808 2.73447 16.4752 2.76691 16.4752 2.78151C16.4681 2.78656 16.461 2.79171 16.454 2.79694C16.4347 2.81142 16.4159 2.82659 16.3977 2.84245C16.3656 2.87049 16.3352 2.90064 16.307 2.93271L21.1101 7.76245L21.2363 7.65326C21.365 7.57962 21.5089 7.53651 21.6569 7.52726C21.7012 7.52525 21.7455 7.53328 21.7862 7.55073C21.827 7.56818 21.8633 7.59462 21.8924 7.62806C21.9801 7.75571 22.0162 7.91174 21.9934 8.06483C21.3625 9.12318 19.8484 9.34997 18.6959 9.34997C17.9197 9.34011 17.1461 9.25922 16.3849 9.10838C16.3139 9.09432 16.2431 9.07965 16.1724 9.06438C16.1735 9.06891 16.1895 9.14462 16.2115 9.27718C16.3531 10.1276 16.7454 13.3176 15.0788 15.0617C13.9754 16.0154 12.5393 16.4954 11.0832 16.3972C10.4876 16.3982 9.89315 16.35 9.30586 16.2531C9.22227 16.2393 9.13883 16.2245 9.05555 16.2087C9.07832 16.2299 9.11388 16.2851 9.15054 16.4294C9.21908 16.6991 9.29148 17.2799 9.29148 18.5307C9.29148 20.8658 8.33253 21.7729 8.33253 21.7729C8.28123 21.8424 8.21394 21.8985 8.13633 21.9365C8.05873 21.9745 7.97311 21.9933 7.8867 21.9913C7.81426 22.0029 7.74043 22.0029 7.66799 21.9913C7.62718 21.9776 7.58967 21.9556 7.55782 21.9267C7.52596 21.8978 7.50046 21.8626 7.48293 21.8233C7.44555 21.6314 7.47255 21.4328 7.5592 21.2581C7.5644 21.2477 7.56982 21.2372 7.57546 21.2269C7.60516 21.2067 7.63329 21.1842 7.65965 21.1599ZM7.41114 21.1106L2.92825 16.6422L2.82747 16.715C2.77496 16.7579 2.71467 16.7902 2.64989 16.8103C2.5892 16.8291 2.52568 16.8368 2.46237 16.8331C2.33352 16.8428 2.20451 16.8137 2.09213 16.7493C1.97396 16.6816 1.88022 16.5782 1.82438 16.454L1.81301 16.4287L1.80896 16.4012C1.79256 16.2903 1.79884 16.1772 1.82742 16.0687C1.856 15.9603 1.90629 15.8588 1.97522 15.7703L1.97997 15.7642C2.25003 15.4439 2.58511 15.1845 2.96288 15.0028C3.33665 14.8231 3.74395 14.7237 4.15847 14.7109C4.65872 14.6319 5.16377 14.5869 5.67013 14.5761L5.67438 14.576C6.48938 14.576 6.87794 14.75 7.0492 14.9689C7.09546 15.0236 7.12779 15.0888 7.14338 15.1588C7.15819 15.2254 7.15743 15.2944 7.14125 15.3605C7.11686 15.5371 7.04063 15.6884 6.89866 15.7997C6.83962 15.846 6.77261 15.8826 6.69917 15.9115L8.09679 17.3071C8.07711 17.2437 8.05468 17.1811 8.02956 17.1195L8.02336 17.1043L8.01973 17.0883C7.70795 15.7156 7.52331 14.3172 7.46814 12.9108L7.46767 12.8988C7.51065 10.8557 8.21064 9.32061 9.59584 8.43396L9.60173 8.43019C10.6064 7.83555 11.7582 7.53495 12.9257 7.5624C13.2167 7.55632 13.5076 7.57668 13.7949 7.62323C13.9487 7.64275 14.0913 7.71427 14.199 7.82602C14.3052 7.9364 14.371 8.07939 14.3856 8.23171C14.3973 8.30119 14.3955 8.37229 14.3804 8.44118C14.3646 8.51357 14.3343 8.58202 14.2915 8.64247L14.2851 8.65151L14.2777 8.65979C14.154 8.79874 13.9838 8.88775 13.7991 8.91014L13.7747 8.9131L13.7504 8.91008C13.5073 8.87994 13.263 8.86011 13.0182 8.85065L15.3091 11.0931C15.2953 10.3068 15.198 9.52377 15.0187 8.75715L15.0181 8.75475C14.5648 6.70315 14.5038 5.15382 14.6816 4.04445C14.8578 2.94489 15.2761 2.24054 15.8211 1.94409C15.9593 1.86198 16.1148 1.81297 16.2752 1.80092L16.2788 1.80064C16.3465 1.79681 16.414 1.80946 16.4757 1.83746C16.5374 1.86546 16.5914 1.90801 16.633 1.96148L16.6388 1.96892L16.6439 1.97686C16.6988 2.06307 16.7176 2.16339 16.7242 2.24579C16.7311 2.33155 16.7263 2.42004 16.7183 2.49754C16.7102 2.5758 16.6983 2.64889 16.6889 2.70377C16.6876 2.71166 16.6863 2.71899 16.6852 2.72582C16.6821 2.74381 16.6796 2.75841 16.6776 2.77099C16.6761 2.7803 16.6755 2.78542 16.6752 2.78747V2.88499L16.5968 2.94049L21.1204 7.48915L21.137 7.47967C21.2922 7.39082 21.4659 7.33881 21.6444 7.32765L21.6479 7.32744C21.7222 7.32407 21.7965 7.33756 21.8649 7.36686C21.9334 7.39616 21.9944 7.44055 22.0433 7.49672L22.0508 7.50538L22.0573 7.51485C22.1736 7.68415 22.2214 7.89114 22.1912 8.09425L22.1854 8.13332L22.1652 8.16724C21.8154 8.75398 21.2281 9.09779 20.6002 9.29508C19.9719 9.49251 19.2828 9.54997 18.6959 9.54997H18.6934C17.9304 9.54028 17.1699 9.463 16.4209 9.31918C16.4835 9.71596 16.5744 10.4622 16.5511 11.3251C16.517 12.5829 16.2391 14.137 15.2234 15.1998L15.2168 15.2067L15.2096 15.213C14.068 16.1997 12.5829 16.697 11.0767 16.5972C10.503 16.5978 9.93036 16.5536 9.36398 16.465C9.4312 16.7842 9.49148 17.3848 9.49148 18.5307C9.49148 19.7265 9.24571 20.5658 8.99355 21.1114C8.86765 21.3837 8.74068 21.5818 8.64315 21.7136C8.5944 21.7795 8.55305 21.8288 8.52291 21.8626C8.50785 21.8795 8.49558 21.8924 8.4866 21.9017L8.48366 21.9046C8.41459 21.994 8.32588 22.0664 8.22432 22.1161C8.12346 22.1655 8.01273 22.1912 7.90058 22.1914C7.81289 22.2037 7.72382 22.2028 7.63633 22.1888L7.62 22.1862L7.60433 22.1809C7.53734 22.1584 7.47572 22.1223 7.42339 22.0748C7.37106 22.0273 7.32914 21.9694 7.30032 21.9049L7.29099 21.884L7.28662 21.8615C7.23808 21.6123 7.27817 21.3539 7.39995 21.131L7.41114 21.1106ZM3.80695 15.9604H3.84901C3.90992 15.9397 3.97146 15.9209 4.0335 15.9042C4.2179 15.8545 4.40683 15.8226 4.59766 15.8092H5.11078L8.39982 19.0935L8.41665 19.169C8.39546 19.4934 8.34127 19.8146 8.25501 20.1276C8.23492 20.2005 8.21309 20.273 8.18953 20.345L3.80695 15.9604ZM4.1986 16.0693L8.09123 19.9637C8.15428 19.7104 8.19559 19.4519 8.21464 19.1912L5.02803 16.0092H4.6048C4.46796 16.0192 4.33219 16.0393 4.1986 16.0693ZM8.53609 12.8012C8.51914 13.6616 8.61751 14.5207 8.82883 15.3556C9.56527 15.5064 10.3147 15.5851 11.0664 15.5908H11.5795L11.4954 15.5236V15.4816L8.58488 12.567L8.54282 12.525V12.5838C8.54245 12.5926 8.54209 12.6013 8.54175 12.6101C8.54175 12.6101 8.54175 12.61 8.54175 12.6101C8.53923 12.6737 8.53734 12.7375 8.53609 12.8012ZM8.73422 12.9996C8.73489 13.7351 8.82155 14.4683 8.99264 15.1843C9.67627 15.3164 10.3707 15.3855 11.0671 15.3908H11.1221L8.73422 12.9996ZM11.4786 8.762C11.04 8.86302 10.625 9.0451 10.2545 9.29823C10.1989 9.33628 10.1442 9.37593 10.0906 9.41716L14.776 14.0957C14.8152 14.0401 14.853 13.9836 14.8893 13.9262C15.0878 13.6119 15.2416 13.2718 15.3464 12.9154C15.3678 12.8428 15.3871 12.7694 15.4044 12.6955C15.4046 12.6947 15.4048 12.6938 15.405 12.693C15.4051 12.6925 15.4052 12.6919 15.4053 12.6914L11.4786 8.762ZM15.1841 12.7529L11.4169 8.98325C11.0542 9.07921 10.7102 9.23437 10.3987 9.4422L14.744 13.7811C14.9404 13.462 15.0887 13.1156 15.1841 12.7529ZM15.7557 4.7119C15.7497 4.79597 15.7458 4.88022 15.7442 4.96459C15.7441 4.96715 15.7441 4.96972 15.744 4.97229C15.744 4.97575 15.7439 4.97921 15.7438 4.98267L19.1586 8.39242C19.4793 8.36567 19.7963 8.30681 20.1049 8.21685C20.1769 8.19587 20.2484 8.17319 20.3194 8.14883L15.9116 3.72226V3.79786C15.8966 3.85288 15.8827 3.90813 15.8697 3.96359C15.812 4.20972 15.7739 4.45994 15.7557 4.7119ZM16.0374 4.13203C15.9853 4.3855 15.9547 4.643 15.9459 4.90179L19.2335 8.18456C19.4732 8.15974 19.7104 8.11618 19.9431 8.05434L16.0374 4.13203ZM17.7959 8.37562L15.8023 6.34293L15.7518 6.29253V6.39332C15.7518 6.39328 15.7518 6.39337 15.7518 6.39332C15.7588 6.46223 15.7664 6.53123 15.7743 6.60004C15.8313 7.09442 15.9108 7.586 16.0126 8.07323C16.5088 8.21203 17.014 8.31605 17.5245 8.38459C17.602 8.39499 17.6797 8.40458 17.7574 8.41334C17.7572 8.41332 17.7576 8.41337 17.7574 8.41334C17.77 8.41476 17.7833 8.41624 17.7959 8.41761L17.8463 8.42601L17.7959 8.37562ZM16.1838 7.91275C16.5493 8.01059 16.9195 8.08929 17.293 8.14856L16.0048 6.83508C16.0523 7.19618 16.112 7.55561 16.1838 7.91275ZM14.1031 14.7509L9.43448 10.0891C9.3955 10.145 9.35798 10.2018 9.32196 10.2594C9.0849 10.6387 8.91241 11.0552 8.812 11.4919L12.7151 15.3892C13.1492 15.2854 13.5618 15.1083 13.9353 14.866C13.9922 14.8291 14.0481 14.7907 14.1031 14.7509ZM13.7904 14.7213L9.46738 10.4046C9.27351 10.7233 9.12713 11.0687 9.03307 11.43L12.7759 15.1674C13.1348 15.0702 13.4767 14.9197 13.7904 14.7213Z" fill="#708191"/>
</svg>
